<svg xmlns="http://www.w3.org/2000/svg" version="1.1" xmlns:xlink="http://www.w3.org/1999/xlink" xmlns:svgjs="http://svgjs.dev/svgjs" width="1024" height="200" preserveAspectRatio="none" viewBox="0 0 1024 200"><g mask="url(&quot;#SvgjsMask1030&quot;)" fill="none"><rect width="1024" height="200" x="0" y="0" fill="rgba(24, 106, 59, 1)"></rect><path d="M0,261.853C49.758,263.01,96.847,242.749,139.021,216.321C181.556,189.667,214.456,152.538,241.711,110.386C272.747,62.387,307.563,12.95,307.48,-44.209C307.393,-104.648,286.185,-168.626,241.25,-209.045C197.583,-248.323,133.031,-248.757,74.512,-253.764C25.415,-257.964,-21.117,-246.473,-69.179,-235.603C-120.67,-223.958,-178.565,-224.254,-216.822,-187.877C-256.127,-150.503,-260.758,-91.83,-275.326,-39.586C-292.094,20.549,-339.109,86.478,-308.497,140.886C-277.332,196.276,-194.097,186.748,-134.927,209.95C-89.137,227.905,-49.172,260.709,0,261.853" fill="#13552f"></path><path d="M1024 620.054C1102.786 619.171 1170.436 573.226 1239.576 535.442 1313.9560000000001 494.794 1420.6770000000001 473.07 1442.726 391.226 1465.507 306.668 1362.286 239.495 1342.275 154.239 1324.895 80.191 1369.871-1.7700000000000102 1334.661-69.18900000000002 1296.821-141.644 1228.004-207.423 1147.144-219.39100000000002 1067.192-231.224 998.386-167.86200000000002 927.254-129.488 870.173-98.69400000000002 822.9590000000001-58.839999999999975 772.962-17.52600000000001 712.104 32.763000000000005 616.143 61.65799999999999 601.952 139.31900000000002 587.841 216.542 671.2339999999999 274.874 706.739 344.88800000000003 740.4169999999999 411.301 749.043 491.519 805.296 540.309 865.127 592.202 944.8050000000001 620.942 1024 620.054" fill="#1d7f47"></path></g><defs><mask id="SvgjsMask1030"><rect width="1024" height="200" fill="#ffffff"></rect></mask></defs></svg>